<svg version="1.1" id="Layer_1" xmlns="http://www.w3.org/2000/svg" xmlns:xlink="http://www.w3.org/1999/xlink" x="0px" y="0px"
	 width="100%" viewBox="0 0 1024 1024" enable-background="new 0 0 1024 1024" xml:space="preserve">
<path fill="#000000" opacity="1.000000" stroke="none" 
	d="
M570.000000,1025.000000 
	C380.000000,1025.000000 190.500000,1025.000000 1.000000,1025.000000 
	C1.000000,683.666687 1.000000,342.333344 1.000000,1.000000 
	C342.333344,1.000000 683.666687,1.000000 1025.000000,1.000000 
	C1025.000000,342.333344 1025.000000,683.666687 1025.000000,1025.000000 
	C873.500000,1025.000000 722.000000,1025.000000 570.000000,1025.000000 
M282.997894,320.988678 
	C282.997894,320.988678 282.989685,320.921265 282.298462,320.946289 
	C281.173279,321.956512 280.048065,322.966766 278.991150,323.991455 
	C278.991150,323.991455 278.988678,323.921722 278.290375,323.946442 
	C276.834686,325.289703 275.378967,326.632935 274.022217,328.001495 
	C274.022217,328.001495 274.051239,327.903564 273.311005,327.981506 
	C272.684845,328.313843 272.058655,328.646149 271.027527,329.233887 
	C270.830048,329.808228 270.632568,330.382599 269.641846,330.957031 
	C269.399292,331.659912 269.156769,332.362823 269.048126,333.049286 
	C269.048126,333.049286 269.053253,332.914520 268.258667,332.980652 
	C262.537018,336.102264 259.209564,341.156494 257.031738,347.031952 
	C257.031738,347.031952 257.037872,346.909637 256.288452,346.982941 
	C255.495377,348.327179 254.702316,349.671417 254.009750,351.011322 
	C254.009750,351.011322 254.010086,350.910736 253.243378,350.984253 
	C252.465408,352.659943 251.687424,354.335632 250.994537,356.004883 
	C250.994537,356.004883 250.987640,355.919800 250.222183,355.985870 
	C249.805023,356.375946 249.179413,356.688629 249.001526,357.167572 
	C245.575333,366.392395 240.005768,374.738373 238.849976,384.921356 
	C237.821686,393.980988 234.787521,402.857513 234.218750,411.914093 
	C233.394791,425.034058 233.861984,438.245117 234.026337,451.414215 
	C234.170944,463.002075 234.925415,474.585876 234.917358,486.171143 
	C234.908752,498.535065 234.040970,510.899017 234.060181,523.262146 
	C234.083084,538.000061 234.806213,552.735901 234.914551,567.474976 
	C234.967758,574.713623 234.074753,581.956909 234.059464,589.199036 
	C234.045914,595.617371 234.976334,602.039856 234.921875,608.455688 
	C234.806824,622.014221 234.089249,635.568604 234.032364,649.126465 
	C233.892517,682.457886 234.227905,715.792725 233.876465,749.120972 
	C233.720093,763.951233 234.850754,778.557922 239.173126,792.684143 
	C241.140762,799.114807 244.988281,804.970215 247.994034,811.003235 
	C247.994034,811.003235 247.910416,810.994446 247.982666,811.739929 
	C248.998077,812.869995 250.013489,814.000000 251.262680,815.765442 
	C253.468948,817.993958 255.766159,820.141113 257.854340,822.475342 
	C259.708435,824.547913 261.330566,826.828064 263.017212,829.730591 
	C264.677124,831.182129 266.337067,832.633667 267.992615,834.003418 
	C267.992615,834.003418 267.910950,834.010193 268.123535,834.669678 
	C276.108185,841.875610 285.638062,846.366638 295.606110,849.949646 
	C300.327820,851.646912 305.234253,853.522522 310.151459,853.835938 
	C319.731995,854.446716 329.380341,854.088928 338.997101,853.926086 
	C340.303833,853.903931 341.590485,852.695129 343.702393,852.000549 
	C351.250641,849.392029 359.144379,847.486572 366.256989,843.991516 
	C374.565948,839.908752 381.661255,834.186157 388.360077,827.263916 
	C393.702576,821.743286 398.198273,816.031799 402.340698,809.763550 
	C406.431641,803.573364 412.081787,802.092712 417.606262,805.868530 
	C416.843079,805.939636 416.079895,806.010803 415.316711,806.081909 
	C415.271057,806.522766 415.225372,806.963684 415.179688,807.404541 
	C417.058411,807.621155 418.937042,808.026917 420.815826,808.027405 
	C541.263306,808.057068 661.710815,808.053772 782.158325,808.053223 
	C784.157410,808.053223 786.189880,808.253601 788.136658,807.933899 
	C788.773438,807.829346 789.187561,806.369385 790.009460,804.880371 
	C790.691284,804.241577 791.373108,803.602783 792.792725,802.531982 
	C792.868835,801.207947 793.011536,799.883972 793.011597,798.559937 
	C793.020935,649.446167 793.028381,500.332428 793.006042,351.218658 
	C793.003662,335.399323 792.823364,319.580017 792.939697,302.913818 
	C793.771118,298.511230 790.431946,300.022461 788.553650,300.020660 
	C735.107361,299.969574 681.661011,299.996155 628.214661,299.988342 
	C556.787537,299.977936 485.360352,299.949341 413.971619,300.040985 
	C413.971619,300.040985 414.088165,300.017731 413.920624,299.593811 
	C413.787323,299.276672 413.548767,299.112762 412.578918,298.619781 
	C413.382172,295.479004 414.673950,292.372131 414.895020,289.190918 
	C415.502563,280.447388 418.479340,272.778076 424.044189,266.059753 
	C427.146484,262.314392 429.564758,257.485870 433.476898,255.048264 
	C439.433929,251.336487 446.383026,249.183228 452.988831,246.565018 
	C455.229370,245.676956 457.706238,245.385086 461.000122,244.771545 
	C488.994202,244.854492 516.988220,244.991165 544.982361,245.009933 
	C618.306946,245.059067 691.631531,245.056747 765.317261,245.814972 
	C772.367493,246.209991 779.414734,246.727997 786.470459,246.902191 
	C787.985962,246.939636 789.532166,245.733887 791.607849,244.914413 
	C791.372803,244.678314 791.137695,244.442230 790.853699,244.006104 
	C790.853699,244.006104 791.039062,243.916306 791.062622,243.327118 
	C791.389221,242.875732 791.715820,242.424347 792.796326,241.557053 
	C792.885376,225.905533 792.974426,210.254028 792.998047,194.433105 
	C792.998047,194.433105 792.949707,194.258087 793.684753,193.914078 
	C797.072205,187.802216 793.914795,181.947311 787.218262,181.947159 
	C679.183838,181.944839 571.149414,181.918961 463.115051,182.037064 
	C458.519531,182.042099 453.914276,183.327881 449.344269,184.181488 
	C448.746948,184.293030 448.334045,185.391907 447.184509,186.044739 
	C446.975037,186.101868 446.765564,186.158997 445.751984,186.204300 
	C443.484650,186.417465 441.217346,186.630630 438.085510,186.974518 
	C436.171509,188.033508 432.878357,184.770203 431.997559,189.000610 
	C431.997559,189.000610 431.959625,188.929276 431.272064,188.332428 
	C429.819519,189.232559 428.367004,190.132690 427.043732,191.036896 
	C427.043732,191.036896 427.065460,190.909378 426.237396,191.036026 
	C419.098602,191.940002 413.075897,195.119019 408.029358,200.034027 
	C408.029358,200.034027 408.046783,199.909058 407.277344,199.992874 
	C403.821350,202.326523 400.365387,204.660187 396.996765,207.000229 
	C396.996765,207.000229 397.002533,206.912811 396.283752,206.982422 
	C394.702393,208.016769 392.856079,208.799225 391.588806,210.132187 
	C387.603607,214.324051 383.835999,218.722778 379.666473,223.624680 
	C375.779907,229.082230 371.893341,234.539795 367.230194,239.956131 
	C366.458221,241.644608 365.686249,243.333084 365.012360,245.009949 
	C365.012360,245.009949 365.005798,244.911377 364.295380,245.110199 
	C362.369232,250.124664 360.443085,255.139130 358.216614,261.007507 
	C356.847748,265.666626 355.305756,270.285583 354.210327,275.008118 
	C353.858978,276.522766 354.687469,278.311066 354.993744,279.993774 
	C354.993744,279.993774 355.013977,280.007690 354.986816,280.876373 
	C354.319550,286.601837 353.652283,292.327301 352.177704,298.272552 
	C351.221222,298.840881 350.290436,299.850006 349.304138,299.907532 
	C341.598663,300.356781 333.868988,300.445068 326.176056,301.029785 
	C322.894287,301.279236 319.682343,302.447601 316.438690,303.198395 
	C316.639465,303.958496 316.840240,304.718628 316.121552,305.654602 
	C305.109619,307.992035 295.451691,313.385681 285.149933,318.953247 
	C284.410553,319.626495 283.671173,320.299713 282.997894,320.988678 
z"/>
<path fill="#131413" opacity="1.000000" stroke="none" 
	d="
M368.006775,239.997345 
	C371.893341,234.539795 375.779907,229.082230 380.173096,223.382217 
	C384.112274,219.819443 387.570679,216.525299 390.967773,213.169128 
	C393.028381,211.133301 394.994141,209.001495 397.002533,206.912811 
	C397.002533,206.912811 396.996765,207.000229 397.254456,207.270569 
	C401.023712,204.996964 404.535248,202.453003 408.046783,199.909058 
	C408.046783,199.909058 408.029358,200.034027 408.340302,200.135468 
	C414.789307,197.127731 420.927368,194.018539 427.065460,190.909363 
	C427.065460,190.909378 427.043732,191.036896 427.357849,191.150955 
	C429.101196,190.486435 430.530396,189.707855 431.959625,188.929276 
	C431.959625,188.929276 431.997559,189.000610 432.209290,189.352905 
	C434.609222,189.096680 436.797455,188.488174 439.369324,187.905243 
	C442.020660,187.359268 444.288391,186.787704 446.556091,186.216125 
	C446.765564,186.158997 446.975037,186.101868 447.967499,186.066986 
	C453.875336,185.597351 459.000092,184.678284 464.125031,184.677094 
	C554.092773,184.656265 644.060547,184.752457 734.028259,184.810471 
	C751.855225,184.821976 769.682312,184.808060 787.509033,184.736481 
	C790.556335,184.724243 792.943054,185.105804 792.013000,189.192657 
	C791.766541,192.549240 791.842590,195.747192 791.969849,199.414856 
	C792.028198,213.914032 792.035278,227.943512 792.042358,241.972961 
	C791.715820,242.424347 791.389221,242.875732 790.598022,243.766739 
	C781.783508,244.235825 773.433533,244.265289 764.622070,244.180603 
	C662.922119,244.096924 561.683655,244.127411 460.233337,243.965790 
	C459.653168,243.683380 459.284851,243.593048 458.916504,243.502731 
	C459.376587,243.748260 459.836700,243.993790 460.347473,244.425140 
	C460.398163,244.610962 460.075104,244.820770 460.075104,244.820770 
	C457.706238,245.385086 455.229370,245.676956 452.988831,246.565018 
	C446.383026,249.183228 439.433929,251.336487 433.476898,255.048264 
	C429.564758,257.485870 427.146484,262.314392 424.044189,266.059753 
	C418.479340,272.778076 415.502563,280.447388 414.895020,289.190918 
	C414.673950,292.372131 413.382172,295.479004 412.899719,299.167114 
	C413.509735,299.815582 413.798950,299.916656 414.088165,300.017731 
	C414.088165,300.017731 413.971619,300.040985 414.087769,300.412537 
	C416.030518,300.857880 417.857086,300.995605 419.683685,300.996216 
	C493.813049,301.021332 567.942383,301.035065 642.071777,301.048065 
	C690.047668,301.056458 738.023682,301.028168 785.999084,301.179657 
	C788.101196,301.186310 790.198120,302.825684 792.209534,304.183960 
	C792.052856,310.794220 791.984131,316.925079 791.678101,323.231995 
	C791.601807,324.255035 791.762756,325.102020 791.982056,326.417786 
	C791.990662,341.280884 791.940918,355.675201 791.658203,370.244446 
	C791.582886,371.257751 791.740601,372.096130 791.958008,373.397217 
	C791.979248,377.597076 791.940796,381.334198 791.620850,385.367004 
	C791.526550,393.417786 791.713806,401.172821 791.958130,409.398071 
	C791.979675,422.932098 791.944153,435.995880 791.672058,449.235535 
	C791.597168,450.256683 791.758850,451.101990 791.979736,452.413910 
	C791.996582,457.607086 791.954224,462.333679 791.663452,467.263855 
	C791.580017,468.624420 791.744995,469.781403 791.967590,471.398987 
	C791.981262,475.264343 791.937317,478.669067 791.640808,482.298920 
	C791.555603,483.990875 791.722961,485.457733 791.948486,487.394836 
	C791.970886,523.593689 791.935181,559.322205 791.747253,595.128601 
	C791.696899,595.454163 791.798767,595.701965 791.960815,596.418213 
	C791.982239,606.943420 791.943542,617.000183 791.692505,627.192017 
	C791.623779,627.866882 791.767456,628.406494 791.970032,629.354797 
	C791.988159,630.860962 791.947510,631.958496 791.694580,633.190308 
	C791.622498,633.863770 791.762695,634.402893 791.961914,635.411133 
	C791.981140,648.275940 791.941345,660.671570 791.655884,673.271423 
	C791.575073,674.628662 791.739990,675.781677 791.963257,677.404297 
	C791.981812,708.935547 791.942139,739.997070 791.691284,771.193604 
	C791.621826,771.866638 791.763611,772.404785 791.964539,773.409668 
	C791.984009,778.600464 791.944336,783.324524 791.751770,788.127319 
	C791.702087,788.455017 791.805176,788.703918 791.968506,789.416992 
	C792.037476,794.242065 792.046204,798.603027 792.054932,802.963989 
	C791.373108,803.602783 790.691284,804.241577 789.410767,805.274292 
	C786.317322,805.557983 783.822754,805.352783 781.328003,805.351624 
	C727.546997,805.327087 673.765991,805.311890 619.984985,805.322754 
	C552.717957,805.336304 485.450897,805.375061 418.183838,805.402893 
	C412.081787,802.092712 406.431641,803.573364 402.340698,809.763550 
	C398.198273,816.031799 393.702576,821.743286 388.360077,827.263916 
	C381.661255,834.186157 374.565948,839.908752 366.256989,843.991516 
	C359.144379,847.486572 351.250641,849.392029 342.929901,852.006714 
	C340.506042,852.043640 338.838745,851.936951 337.205658,852.125793 
	C312.441071,854.989868 290.076202,848.804077 269.853027,834.405701 
	C269.361115,834.055542 268.565094,834.132507 267.910950,834.010193 
	C267.910950,834.010193 267.992615,834.003418 268.247864,833.753784 
	C266.687073,832.008301 264.871094,830.512451 263.055115,829.016663 
	C261.330566,826.828064 259.708435,824.547913 257.854340,822.475342 
	C255.766159,820.141113 253.468948,817.993958 251.181595,815.071899 
	C250.037140,813.250366 248.973785,812.122437 247.910416,810.994446 
	C247.910416,810.994446 247.994034,811.003235 248.314621,810.764954 
	C242.543518,799.059998 238.048050,787.094421 237.590546,773.869568 
	C238.308273,771.886353 238.946442,770.018311 238.947678,768.149841 
	C238.999664,689.406433 238.995529,610.663086 238.996613,531.919678 
	C238.997177,491.465912 239.017960,451.012054 238.917877,410.558533 
	C238.913284,408.709412 237.807358,406.863007 237.123642,404.747223 
	C237.187454,403.944733 237.342026,403.410370 237.725525,402.818298 
	C238.063507,402.651001 238.172562,402.541504 238.281631,402.432007 
	C238.033768,402.252075 237.785904,402.072174 237.431122,401.460144 
	C239.051407,385.608856 243.388412,371.016479 251.060608,357.467682 
	C251.275925,357.087433 251.022491,356.441711 250.987640,355.919800 
	C250.987640,355.919800 250.994537,356.004883 251.300446,356.208618 
	C252.407608,354.578491 253.208847,352.744598 254.010086,350.910736 
	C254.010086,350.910736 254.009750,351.011322 254.299622,351.192230 
	C255.405624,349.885315 256.221741,348.397461 257.037872,346.909637 
	C257.037872,346.909637 257.031738,347.031952 257.321198,347.101379 
	C261.424866,342.418701 265.239075,337.666595 269.053253,332.914520 
	C269.053253,332.914520 269.048126,333.049286 269.393372,332.999023 
	C269.970795,332.284851 270.202942,331.620911 270.435059,330.956970 
	C270.632568,330.382599 270.830048,329.808228 271.538422,329.616669 
	C272.716644,329.300842 273.383942,328.602203 274.051239,327.903564 
	C274.051239,327.903564 274.022217,328.001495 274.248901,328.304138 
	C275.979950,327.045105 277.484314,325.483429 278.988708,323.921753 
	C278.988678,323.921722 278.991150,323.991455 279.243469,324.307526 
	C280.660431,323.389496 281.825073,322.155365 282.989685,320.921265 
	C282.989685,320.921265 282.997894,320.988678 283.209045,321.289307 
	C284.249847,320.739868 285.079468,319.889740 285.909058,319.039612 
	C295.451691,313.385681 305.109619,307.992035 316.859772,305.444153 
	C328.034546,303.845581 338.464905,302.407654 348.912842,301.111298 
	C351.003052,300.851990 353.495422,301.585297 352.985016,298.052765 
	C353.652283,292.327301 354.319550,286.601837 355.202667,280.319427 
	C355.414612,279.410034 355.410706,279.057617 355.406799,278.705170 
	C355.263245,279.128174 355.119720,279.551178 354.976196,279.974182 
	C354.687469,278.311066 353.858978,276.522766 354.210327,275.008118 
	C355.305756,270.285583 356.847748,265.666626 358.586426,260.444397 
	C360.972778,254.891327 362.989288,249.901352 365.005798,244.911377 
	C365.005798,244.911377 365.012360,245.009949 365.321716,245.136871 
	C366.422943,243.508331 367.214874,241.752838 368.006775,239.997345 
M686.610229,744.046570 
	C686.610229,744.046570 686.511292,743.944519 687.370544,743.793762 
	C697.399963,744.544312 707.429321,745.294861 718.458435,745.979797 
	C722.997070,745.979797 727.535706,745.979797 732.037720,745.979797 
	C732.037720,742.704346 732.037720,740.245483 731.971252,737.462830 
	C731.971252,737.462830 732.029541,737.137329 732.198853,736.195435 
	C732.205505,723.936462 732.243652,711.677368 732.178040,699.418823 
	C732.170044,697.926208 733.247009,695.298584 729.496826,696.057739 
	C729.496826,696.057739 729.154968,696.050354 728.714111,695.382141 
	C726.713562,695.613708 724.712952,695.845276 722.453247,696.076721 
	C722.453247,696.076721 722.222351,695.958801 721.279785,695.731018 
	C705.476135,695.724426 689.672302,695.753174 673.868835,695.699219 
	C662.570984,695.660645 651.273499,695.511047 639.759583,694.858398 
	C638.513855,695.044922 637.268066,695.231384 635.120056,695.692932 
	C590.700134,695.703064 546.280151,695.734558 501.860199,695.711304 
	C486.899139,695.703491 471.938110,695.557007 456.802124,694.933105 
	C455.875275,695.115051 454.948425,695.296936 453.113556,695.733093 
	C440.032928,695.794373 426.952332,695.855652 413.305908,695.983398 
	C413.201996,696.330994 413.098083,696.678589 412.649506,697.784668 
	C412.439453,698.576294 412.048767,699.367310 412.046173,700.159607 
	C412.002960,713.413147 411.983948,726.667053 412.049683,739.920349 
	C412.054840,740.961243 412.725952,741.998901 412.990814,743.910339 
	C414.290100,744.592346 415.581879,745.849609 416.889862,745.866760 
	C429.124176,746.027039 441.361206,745.974792 454.415680,745.667542 
	C458.066101,745.628723 461.719940,745.677612 465.366333,745.535156 
	C478.066467,745.039429 490.764069,744.477417 503.346191,744.973938 
	C503.931091,744.985718 504.515961,744.997559 504.986115,745.028015 
	C504.986115,745.028015 504.957886,744.915283 505.010376,745.846069 
	C551.648499,745.892883 598.286621,745.944397 644.924744,745.941833 
	C645.630737,745.941833 646.336731,745.272400 647.014160,745.028259 
	C647.014160,745.028259 646.899231,745.009521 647.784607,745.552063 
	C648.035522,745.014893 648.286499,744.477722 649.373291,743.793518 
	C659.069763,744.544373 668.766296,745.295227 679.453491,745.919800 
	C680.142334,745.260315 680.831116,744.600830 682.100037,743.796204 
	C682.890808,743.844543 683.681580,743.892883 684.176636,744.730225 
	C684.576904,745.066772 684.977112,745.403320 686.109375,745.953796 
	C686.558044,745.677856 687.006714,745.401917 687.455383,745.125916 
	C687.202209,744.803711 686.949036,744.481506 686.610229,744.046570 
M413.427063,360.684204 
	C413.294586,361.118591 413.162079,361.552948 412.423157,362.567108 
	C412.282990,364.043610 412.020416,365.520050 412.020081,366.996582 
	C412.000092,454.975677 411.995361,542.954773 412.048126,630.933838 
	C412.049133,632.640869 412.750824,634.347595 413.320007,636.927551 
	C414.628906,637.064941 415.937744,637.322266 417.246674,637.322754 
	C521.071167,637.361511 624.895691,637.380798 728.720154,637.391724 
	C729.821838,637.391846 730.923584,637.262024 732.269348,637.177490 
	C732.269348,635.859985 732.268982,634.889160 732.269531,633.918274 
	C732.311951,558.092041 732.373169,482.265808 732.380798,406.439575 
	C732.382324,391.281097 732.179077,376.122589 731.724609,360.144775 
	C731.230530,360.083160 730.736389,359.967468 730.242310,359.967529 
	C625.913086,359.976746 521.583801,359.990875 417.254578,360.055054 
	C416.155365,360.055756 415.056580,360.717224 413.983032,360.980774 
	C413.983032,360.980774 414.074341,360.998444 413.427063,360.684204 
M352.999756,370.114838 
	C352.999756,367.200531 352.999756,364.286194 352.999756,361.872711 
	C349.473541,360.923859 346.854828,360.219208 344.994049,359.718506 
	C341.722137,360.927155 338.980042,362.617065 336.115112,362.860229 
	C329.767334,363.399048 324.761505,366.484711 319.960175,370.115875 
	C315.987793,373.120148 310.913971,375.646790 308.617828,379.686493 
	C303.728821,388.287811 300.280243,397.714691 296.396118,406.868896 
	C296.039429,407.709534 296.795776,409.022400 297.011200,411.038269 
	C297.020752,431.356842 297.041290,451.675385 297.038025,471.993958 
	C297.022430,569.258789 296.993988,666.523560 297.015289,763.788391 
	C297.015839,766.397827 297.530304,769.007202 298.157318,772.350891 
	C299.396729,775.144287 300.551056,777.979309 301.892212,780.722961 
	C305.312408,787.719788 311.728271,791.542664 318.589539,793.298523 
	C323.503479,794.556030 328.923920,795.030151 334.578766,792.452515 
	C347.173920,786.711365 352.283752,776.958740 353.610352,763.384094 
	C353.737396,761.572083 353.975372,759.760010 353.975616,757.947998 
	C353.993103,630.873352 353.995758,503.798706 353.951416,376.724060 
	C353.950775,374.826996 353.346527,372.930115 352.999756,370.114838 
M412.399719,290.486145 
	C412.399719,290.486145 412.510864,290.412994 412.399719,290.486145 
z"/>
<path fill="#F7F7F7" opacity="1.000000" stroke="none" 
	d="
M250.604919,355.952820 
	C251.022491,356.441711 251.275925,357.087433 251.060608,357.467682 
	C243.388412,371.016479 239.051407,385.608856 237.349823,401.703125 
	C237.415833,402.544159 237.456238,402.710114 237.496613,402.876038 
	C237.342026,403.410370 237.187454,403.944733 237.046143,405.209229 
	C237.063309,512.977966 237.061554,620.016663 237.077454,727.055298 
	C237.079773,742.698364 237.166336,758.341431 237.213913,773.984497 
	C238.048050,787.094421 242.543518,799.059998 248.309158,810.806641 
	C244.988281,804.970215 241.140762,799.114807 239.173126,792.684143 
	C234.850754,778.557922 233.720093,763.951233 233.876465,749.120972 
	C234.227905,715.792725 233.892517,682.457886 234.032364,649.126465 
	C234.089249,635.568604 234.806824,622.014221 234.921875,608.455688 
	C234.976334,602.039856 234.045914,595.617371 234.059464,589.199036 
	C234.074753,581.956909 234.967758,574.713623 234.914551,567.474976 
	C234.806213,552.735901 234.083084,538.000061 234.060181,523.262146 
	C234.040970,510.899017 234.908752,498.535065 234.917358,486.171143 
	C234.925415,474.585876 234.170944,463.002075 234.026337,451.414215 
	C233.861984,438.245117 233.394791,425.034058 234.218750,411.914093 
	C234.787521,402.857513 237.821686,393.980988 238.849976,384.921356 
	C240.005768,374.738373 245.575333,366.392395 249.001526,357.167572 
	C249.179413,356.688629 249.805023,356.375946 250.604919,355.952820 
z"/>
<path fill="#E3E3E3" opacity="1.000000" stroke="none" 
	d="
M417.895050,805.635742 
	C485.450897,805.375061 552.717957,805.336304 619.984985,805.322754 
	C673.765991,805.311890 727.546997,805.327087 781.328003,805.351624 
	C783.822754,805.352783 786.317322,805.557983 789.257751,805.598755 
	C789.187561,806.369385 788.773438,807.829346 788.136658,807.933899 
	C786.189880,808.253601 784.157410,808.053223 782.158325,808.053223 
	C661.710815,808.053772 541.263306,808.057068 420.815826,808.027405 
	C418.937042,808.026917 417.058411,807.621155 415.179688,807.404541 
	C415.225372,806.963684 415.271057,806.522766 415.316711,806.081909 
	C416.079895,806.010803 416.843079,805.939636 417.895050,805.635742 
z"/>
<path fill="#E3E3E3" opacity="1.000000" stroke="none" 
	d="
M792.335449,189.034042 
	C792.943054,185.105804 790.556335,184.724243 787.509033,184.736481 
	C769.682312,184.808060 751.855225,184.821976 734.028259,184.810471 
	C644.060547,184.752457 554.092773,184.656265 464.125031,184.677094 
	C459.000092,184.678284 453.875336,185.597351 448.293121,186.061340 
	C448.334045,185.391907 448.746948,184.293030 449.344269,184.181488 
	C453.914276,183.327881 458.519531,182.042099 463.115051,182.037064 
	C571.149414,181.918961 679.183838,181.944839 787.218262,181.947159 
	C793.914795,181.947311 797.072205,187.802216 793.180054,193.665283 
	C792.562073,191.955688 792.448792,190.494858 792.335449,189.034042 
z"/>
<path fill="#5A5A5C" opacity="1.000000" stroke="none" 
	d="
M791.891235,370.069489 
	C791.940918,355.675201 791.990662,341.280884 792.015991,326.057068 
	C791.966187,324.503662 791.940796,323.779785 791.915344,323.055939 
	C791.984131,316.925079 792.052856,310.794220 792.324951,304.134521 
	C792.528259,303.605682 792.725647,303.760681 792.725586,303.760681 
	C792.823364,319.580017 793.003662,335.399323 793.006042,351.218658 
	C793.028381,500.332428 793.020935,649.446167 793.011597,798.559937 
	C793.011536,799.883972 792.868835,801.207947 792.423828,802.747925 
	C792.046204,798.603027 792.037476,794.242065 791.992065,789.190918 
	C791.955383,788.500732 791.904663,788.048584 791.904663,788.048584 
	C791.944336,783.324524 791.984009,778.600464 791.997437,773.096313 
	C791.948242,771.896973 791.925354,771.477844 791.902466,771.058655 
	C791.942139,739.997070 791.981812,708.935547 791.998901,677.018860 
	C791.951416,675.131592 791.926514,674.099365 791.901611,673.067200 
	C791.941345,660.671570 791.981140,648.275940 791.995239,635.097656 
	C791.948608,633.895325 791.927734,633.475647 791.906799,633.056030 
	C791.947510,631.958496 791.988159,630.860962 792.001709,629.040527 
	C791.951294,627.897339 791.928101,627.477112 791.904907,627.056885 
	C791.943542,617.000183 791.982239,606.943420 791.984863,596.193542 
	C791.948853,595.500366 791.899475,595.050781 791.899475,595.050781 
	C791.935181,559.322205 791.970886,523.593689 791.984619,486.992157 
	C791.939514,484.770721 791.916443,483.422272 791.893433,482.073792 
	C791.937317,478.669067 791.981262,475.264343 792.002686,471.012451 
	C791.957336,469.130280 791.934631,468.095245 791.911865,467.060242 
	C791.954224,462.333679 791.996582,457.607086 792.012817,452.053772 
	C791.960632,450.504608 791.934631,449.782135 791.908630,449.059692 
	C791.944153,435.995880 791.979675,422.932098 791.995117,408.937469 
	C791.950867,400.361542 791.926636,392.716431 791.902344,385.071320 
	C791.940796,381.334198 791.979248,377.597076 791.992188,373.040039 
	C791.941528,371.503265 791.916321,370.786377 791.891235,370.069489 
z"/>
<path fill="#E3E3E3" opacity="1.000000" stroke="none" 
	d="
M792.832642,303.337250 
	C792.725647,303.760681 792.528259,303.605682 792.412842,303.655090 
	C790.198120,302.825684 788.101196,301.186310 785.999084,301.179657 
	C738.023682,301.028168 690.047668,301.056458 642.071777,301.048065 
	C567.942383,301.035065 493.813049,301.021332 419.683685,300.996216 
	C417.857086,300.995605 416.030518,300.857880 414.068573,300.356323 
	C485.360352,299.949341 556.787537,299.977936 628.214661,299.988342 
	C681.661011,299.996155 735.107361,299.969574 788.553650,300.020660 
	C790.431946,300.022461 793.771118,298.511230 792.832642,303.337250 
z"/>
<path fill="#C3C4C4" opacity="1.000000" stroke="none" 
	d="
M460.445160,244.157883 
	C561.683655,244.127411 662.922119,244.096924 764.666382,244.388092 
	C765.172180,244.709732 764.956116,245.074936 764.956116,245.074936 
	C691.631531,245.056747 618.306946,245.059067 544.982361,245.009933 
	C516.988220,244.991165 488.994202,244.854492 460.537598,244.796158 
	C460.075104,244.820770 460.398163,244.610962 460.360962,244.361755 
	C460.323730,244.112549 460.445160,244.157883 460.445160,244.157883 
z"/>
<path fill="#F7F7F7" opacity="1.000000" stroke="none" 
	d="
M268.017242,834.339966 
	C268.565094,834.132507 269.361115,834.055542 269.853027,834.405701 
	C290.076202,848.804077 312.441071,854.989868 337.205658,852.125793 
	C338.838745,851.936951 340.506042,852.043640 342.521912,852.024414 
	C341.590485,852.695129 340.303833,853.903931 338.997101,853.926086 
	C329.380341,854.088928 319.731995,854.446716 310.151459,853.835938 
	C305.234253,853.522522 300.327820,851.646912 295.606110,849.949646 
	C285.638062,846.366638 276.108185,841.875610 268.017242,834.339966 
z"/>
<path fill="#FFFFFF" opacity="1.000000" stroke="none" 
	d="
M765.136719,245.444946 
	C764.956116,245.074936 765.172180,244.709732 765.127930,244.502243 
	C773.433533,244.265289 781.783508,244.235825 790.586243,244.061340 
	C791.039062,243.916306 790.853699,244.006104 790.877441,244.337219 
	C790.901123,244.668335 791.064209,245.100800 791.064209,245.100815 
	C789.532166,245.733887 787.985962,246.939636 786.470459,246.902191 
	C779.414734,246.727997 772.367493,246.209991 765.136719,245.444946 
z"/>
<path fill="#E3E3E3" opacity="1.000000" stroke="none" 
	d="
M352.581360,298.162659 
	C353.495422,301.585297 351.003052,300.851990 348.912842,301.111298 
	C338.464905,302.407654 328.034546,303.845581 317.319519,305.356232 
	C316.840240,304.718628 316.639465,303.958496 316.438690,303.198364 
	C319.682343,302.447601 322.894287,301.279236 326.176056,301.029785 
	C333.868988,300.445068 341.598663,300.356781 349.304138,299.907532 
	C350.290436,299.850006 351.221222,298.840881 352.581360,298.162659 
z"/>
<path fill="#F7F7F7" opacity="1.000000" stroke="none" 
	d="
M396.643127,206.947617 
	C394.994141,209.001495 393.028381,211.133301 390.967773,213.169128 
	C387.570679,216.525299 384.112274,219.819443 380.331970,223.090591 
	C383.835999,218.722778 387.603607,214.324051 391.588806,210.132187 
	C392.856079,208.799225 394.702393,208.016769 396.643127,206.947617 
z"/>
<path fill="#5A5A5C" opacity="1.000000" stroke="none" 
	d="
M792.419312,241.765015 
	C792.035278,227.943512 792.028198,213.914032 792.006104,199.027084 
	C792.348633,196.980576 792.706055,195.791550 793.063477,194.602509 
	C792.974426,210.254028 792.885376,225.905533 792.419312,241.765015 
z"/>
<path fill="#F7F7F7" opacity="1.000000" stroke="none" 
	d="
M426.651428,190.972687 
	C420.927368,194.018539 414.789307,197.127731 408.277222,200.133774 
	C413.075897,195.119019 419.098602,191.940002 426.651428,190.972687 
z"/>
<path fill="#F7F7F7" opacity="1.000000" stroke="none" 
	d="
M268.655945,332.947571 
	C265.239075,337.666595 261.424866,342.418701 257.260101,347.105438 
	C259.209564,341.156494 262.537018,336.102264 268.655945,332.947571 
z"/>
<path fill="#E3E3E3" opacity="1.000000" stroke="none" 
	d="
M364.650604,245.010803 
	C362.989288,249.901352 360.972778,254.891327 358.736572,260.017456 
	C360.443085,255.139130 362.369232,250.124664 364.650604,245.010803 
z"/>
<path fill="#F7F7F7" opacity="1.000000" stroke="none" 
	d="
M407.662048,199.950958 
	C404.535248,202.453003 401.023712,204.996964 397.210785,207.267380 
	C400.365387,204.660187 403.821350,202.326523 407.662048,199.950958 
z"/>
<path fill="#040404" opacity="1.000000" stroke="none" 
	d="
M793.030762,194.517807 
	C792.706055,195.791550 792.348633,196.980576 791.954895,198.557373 
	C791.842590,195.747192 791.766541,192.549240 792.013000,189.192657 
	C792.448792,190.494858 792.562073,191.955688 792.812500,193.837296 
	C792.949707,194.258087 792.998047,194.433105 793.030762,194.517807 
z"/>
<path fill="#E3E3E3" opacity="1.000000" stroke="none" 
	d="
M446.154053,186.210220 
	C444.288391,186.787704 442.020660,187.359268 439.353333,187.646515 
	C438.952454,187.189407 438.951233,187.016586 438.950012,186.843781 
	C441.217346,186.630630 443.484650,186.417465 446.154053,186.210220 
z"/>
<path fill="#F7F7F7" opacity="1.000000" stroke="none" 
	d="
M263.036133,829.373657 
	C264.871094,830.512451 266.687073,832.008301 268.250061,833.794678 
	C266.337067,832.633667 264.677124,831.182129 263.036133,829.373657 
z"/>
<path fill="#E3E3E3" opacity="1.000000" stroke="none" 
	d="
M278.639526,323.934082 
	C277.484314,325.483429 275.979950,327.045105 274.199432,328.291504 
	C275.378967,326.632935 276.834686,325.289703 278.639526,323.934082 
z"/>
<path fill="#F7F7F7" opacity="1.000000" stroke="none" 
	d="
M253.626740,350.947510 
	C253.208847,352.744598 252.407608,354.578491 251.257904,356.211853 
	C251.687424,354.335632 252.465408,352.659943 253.626740,350.947510 
z"/>
<path fill="#F7F7F7" opacity="1.000000" stroke="none" 
	d="
M438.517761,186.909149 
	C438.951233,187.016586 438.952454,187.189407 438.969666,187.620941 
	C436.797455,188.488174 434.609222,189.096680 432.187531,189.318069 
	C432.878357,184.770203 436.171509,188.033508 438.517761,186.909149 
z"/>
<path fill="#E3E3E3" opacity="1.000000" stroke="none" 
	d="
M367.618500,239.976746 
	C367.214874,241.752838 366.422943,243.508331 365.272644,245.142685 
	C365.686249,243.333084 366.458221,241.644608 367.618500,239.976746 
z"/>
<path fill="#F7F7F7" opacity="1.000000" stroke="none" 
	d="
M247.946533,811.367188 
	C248.973785,812.122437 250.037140,813.250366 251.064697,814.754211 
	C250.013489,814.000000 248.998077,812.869995 247.946533,811.367188 
z"/>
<path fill="#F7F7F7" opacity="1.000000" stroke="none" 
	d="
M256.663147,346.946289 
	C256.221741,348.397461 255.405624,349.885315 254.249374,351.194397 
	C254.702316,349.671417 255.495377,348.327179 256.663147,346.946289 
z"/>
<path fill="#E3E3E3" opacity="1.000000" stroke="none" 
	d="
M282.644073,320.933777 
	C281.825073,322.155365 280.660431,323.389496 279.209351,324.300293 
	C280.048065,322.966766 281.173279,321.956512 282.644073,320.933777 
z"/>
<path fill="#F7F7F7" opacity="1.000000" stroke="none" 
	d="
M431.615845,188.630859 
	C430.530396,189.707855 429.101196,190.486435 427.293213,191.148911 
	C428.367004,190.132690 429.819519,189.232559 431.615845,188.630859 
z"/>
<path fill="#E3E3E3" opacity="1.000000" stroke="none" 
	d="
M285.529480,318.996429 
	C285.079468,319.889740 284.249847,320.739868 283.176025,321.281433 
	C283.671173,320.299713 284.410553,319.626495 285.529480,318.996429 
z"/>
<path fill="#F7F7F7" opacity="1.000000" stroke="none" 
	d="
M270.038452,330.957001 
	C270.202942,331.620911 269.970795,332.284851 269.326416,333.007263 
	C269.156769,332.362823 269.399292,331.659912 270.038452,330.957001 
z"/>
<path fill="#F7F7F7" opacity="1.000000" stroke="none" 
	d="
M273.681122,327.942535 
	C273.383942,328.602203 272.716644,329.300842 271.740906,329.488953 
	C272.058655,328.646149 272.684845,328.313843 273.681122,327.942535 
z"/>
<path fill="#C3C4C4" opacity="1.000000" stroke="none" 
	d="
M791.336060,245.007599 
	C791.064209,245.100800 790.901123,244.668335 790.901855,244.437241 
	C791.137695,244.442230 791.372803,244.678314 791.336060,245.007599 
z"/>
<path fill="#E3E3E3" opacity="1.000000" stroke="none" 
	d="
M414.004395,299.805786 
	C413.798950,299.916656 413.509735,299.815582 413.212708,299.408264 
	C413.548767,299.112762 413.787323,299.276672 414.004395,299.805786 
z"/>
<path fill="#000000" opacity="1.000000" stroke="none" 
	d="
M413.125610,636.054443 
	C412.750824,634.347595 412.049133,632.640869 412.048126,630.933838 
	C411.995361,542.954773 412.000092,454.975677 412.020081,366.996582 
	C412.020416,365.520050 412.282990,364.043610 413.021057,362.286774 
	C413.770752,361.670441 413.922546,361.334442 414.074341,360.998444 
	C414.074341,360.998444 413.983032,360.980774 414.441528,361.000732 
	C520.217712,361.024872 625.535339,361.029022 730.921265,361.495300 
	C730.989624,453.213104 730.989624,544.468750 730.989624,636.000000 
	C728.682251,636.000000 726.878418,635.999756 725.074585,636.000061 
	C621.091614,636.018127 517.108582,636.036255 413.125610,636.054443 
z"/>
<path fill="#000000" opacity="1.000000" stroke="none" 
	d="
M353.024048,763.966919 
	C352.283752,776.958740 347.173920,786.711365 334.578766,792.452515 
	C328.923920,795.030151 323.503479,794.556030 318.589539,793.298523 
	C311.728271,791.542664 305.312408,787.719788 301.892212,780.722961 
	C300.551056,777.979309 299.396729,775.144287 297.984131,771.540161 
	C297.875031,768.566284 297.995148,766.403198 297.995270,764.240112 
	C298.002075,647.678040 298.002350,531.115906 297.956696,414.553864 
	C297.956116,413.074432 297.355743,411.595276 297.035339,410.115997 
	C296.795776,409.022400 296.039429,407.709534 296.396118,406.868896 
	C300.280243,397.714691 303.728821,388.287811 308.617828,379.686493 
	C310.913971,375.646790 315.987793,373.120148 319.960175,370.115875 
	C324.761505,366.484711 329.767334,363.399048 336.115112,362.860229 
	C338.980042,362.617065 341.722137,360.927155 344.994049,359.718506 
	C346.854828,360.219208 349.473541,360.923859 352.999756,361.872711 
	C352.999756,364.286194 352.999756,367.200531 353.006958,371.038727 
	C353.017456,502.630707 353.020752,633.298828 353.024048,763.966919 
z"/>
<path fill="#000000" opacity="1.000000" stroke="none" 
	d="
M722.222351,695.958801 
	C722.222351,695.958801 722.453247,696.076721 722.959961,696.061401 
	C725.362793,696.047485 727.258850,696.048889 729.154968,696.050354 
	C729.154968,696.050354 729.496826,696.057739 729.849182,696.403198 
	C730.467712,698.304932 730.954163,699.859619 730.964417,701.417542 
	C731.032959,711.841064 730.959412,722.265747 731.045898,732.689026 
	C731.058167,734.174377 731.686401,735.654663 732.029541,737.137329 
	C732.029541,737.137329 731.971252,737.462830 731.620361,737.809692 
	C730.549805,745.067993 730.549805,745.071106 723.506714,745.046143 
	C722.027100,745.040894 720.547546,745.003479 718.934082,744.635071 
	C718.326172,744.538147 717.852234,744.787109 717.242676,745.300842 
	C717.224365,745.725586 717.341553,745.885498 717.458740,746.045471 
	C707.429321,745.294861 697.399963,744.544312 686.431702,743.892822 
	C685.152710,743.974976 684.812500,743.958069 684.472351,743.941162 
	C683.681580,743.892883 682.890808,743.844543 681.300049,743.896851 
	C679.820984,744.680420 679.141907,745.363281 678.462769,746.046143 
	C668.766296,745.295227 659.069763,744.544373 648.594116,743.906860 
	C647.509705,744.349976 647.204468,744.679749 646.899231,745.009521 
	C646.899231,745.009521 647.014160,745.028259 646.558838,745.016724 
	C599.054993,744.975159 552.006470,744.945251 504.957886,744.915283 
	C504.957886,744.915283 504.986115,745.028015 504.914642,744.679321 
	C504.382996,744.200562 503.922791,744.070557 503.462616,743.940491 
	C490.764069,744.477417 478.066467,745.039429 465.366333,745.535156 
	C461.719940,745.677612 458.066101,745.628723 453.832031,745.900757 
	C453.248352,746.133972 453.118408,745.776978 453.538330,745.718506 
	C453.936218,745.163879 453.914185,744.667603 453.892151,744.171387 
	C453.574036,744.432190 453.255920,744.692932 452.473755,744.982056 
	C442.107361,745.011597 432.201202,745.166199 422.304779,744.923157 
	C419.218811,744.847473 416.159241,743.696655 413.087585,743.038025 
	C412.725952,741.998901 412.054840,740.961243 412.049683,739.920349 
	C411.983948,726.667053 412.002960,713.413147 412.046173,700.159607 
	C412.048767,699.367310 412.439453,698.576294 413.091797,697.446533 
	C413.707428,697.052856 413.880768,696.997314 414.505249,696.968933 
	C419.869202,697.330750 424.784210,697.981934 429.694641,697.949402 
	C465.921906,697.709595 502.147797,697.187317 538.375183,697.065918 
	C554.781311,697.010864 571.188721,697.800110 587.597839,697.935547 
	C594.342285,697.991211 601.095093,697.007874 607.839905,697.057922 
	C633.408569,697.247559 658.975098,697.704468 684.543335,697.981567 
	C694.868042,698.093506 705.197449,698.117981 715.519104,697.907227 
	C717.765808,697.861328 719.988586,696.639221 722.222351,695.958801 
z"/>
<path fill="#040404" opacity="1.000000" stroke="none" 
	d="
M237.590546,773.869568 
	C237.166336,758.341431 237.079773,742.698364 237.077454,727.055298 
	C237.061554,620.016663 237.063309,512.977966 237.136902,405.477356 
	C237.807358,406.863007 238.913284,408.709412 238.917877,410.558533 
	C239.017960,451.012054 238.997177,491.465912 238.996613,531.919678 
	C238.995529,610.663086 238.999664,689.406433 238.947678,768.149841 
	C238.946442,770.018311 238.308273,771.886353 237.590546,773.869568 
z"/>
<path fill="#FFFFFF" opacity="1.000000" stroke="none" 
	d="
M413.222809,636.490967 
	C517.108582,636.036255 621.091614,636.018127 725.074585,636.000061 
	C726.878418,635.999756 728.682251,636.000000 730.989624,636.000000 
	C730.989624,544.468750 730.989624,453.213104 731.224365,361.456604 
	C731.662842,360.958527 731.866577,360.961334 732.070251,360.964111 
	C732.179077,376.122589 732.382324,391.281097 732.380798,406.439575 
	C732.373169,482.265808 732.311951,558.092041 732.269531,633.918274 
	C732.268982,634.889160 732.269348,635.859985 732.269348,637.177490 
	C730.923584,637.262024 729.821838,637.391846 728.720154,637.391724 
	C624.895691,637.380798 521.071167,637.361511 417.246674,637.322754 
	C415.937744,637.322266 414.628906,637.064941 413.222809,636.490967 
z"/>
<path fill="#FFFFFF" opacity="1.000000" stroke="none" 
	d="
M721.751099,695.844910 
	C719.988586,696.639221 717.765808,697.861328 715.519104,697.907227 
	C705.197449,698.117981 694.868042,698.093506 684.543335,697.981567 
	C658.975098,697.704468 633.408569,697.247559 607.839905,697.057922 
	C601.095093,697.007874 594.342285,697.991211 587.597839,697.935547 
	C571.188721,697.800110 554.781311,697.010864 538.375183,697.065918 
	C502.147797,697.187317 465.921906,697.709595 429.694641,697.949402 
	C424.784210,697.981934 419.869202,697.330750 414.399811,696.723389 
	C413.852783,696.272705 413.862244,696.094849 413.871704,695.916931 
	C426.952332,695.855652 440.032928,695.794373 453.929626,695.711914 
	C455.489502,695.618530 456.233276,695.546204 456.977081,695.473877 
	C471.938110,695.557007 486.899139,695.703491 501.860199,695.711304 
	C546.280151,695.734558 590.700134,695.703064 635.955566,695.676147 
	C637.852722,695.576599 638.914307,695.493774 639.975891,695.411011 
	C651.273499,695.511047 662.570984,695.660645 673.868835,695.699219 
	C689.672302,695.753174 705.476135,695.724426 721.751099,695.844910 
z"/>
<path fill="#222222" opacity="1.000000" stroke="none" 
	d="
M353.317200,763.675537 
	C353.020752,633.298828 353.017456,502.630707 353.019043,371.497864 
	C353.346527,372.930115 353.950775,374.826996 353.951416,376.724060 
	C353.995758,503.798706 353.993103,630.873352 353.975616,757.947998 
	C353.975372,759.760010 353.737396,761.572083 353.317200,763.675537 
z"/>
<path fill="#E3E3E3" opacity="1.000000" stroke="none" 
	d="
M297.023254,410.577148 
	C297.355743,411.595276 297.956116,413.074432 297.956696,414.553864 
	C298.002350,531.115906 298.002075,647.678040 297.995270,764.240112 
	C297.995148,766.403198 297.875031,768.566284 297.808044,771.172974 
	C297.530304,769.007202 297.015839,766.397827 297.015289,763.788391 
	C296.993988,666.523560 297.022430,569.258789 297.038025,471.993958 
	C297.041290,451.675385 297.020752,431.356842 297.023254,410.577148 
z"/>
<path fill="#C3C4C4" opacity="1.000000" stroke="none" 
	d="
M731.897461,360.554443 
	C731.866577,360.961334 731.662842,360.958527 731.156067,360.994446 
	C625.535339,361.029022 520.217712,361.024872 414.428833,361.045471 
	C415.056580,360.717224 416.155365,360.055756 417.254578,360.055054 
	C521.583801,359.990875 625.913086,359.976746 730.242310,359.967529 
	C730.736389,359.967468 731.230530,360.083160 731.897461,360.554443 
z"/>
<path fill="#E3E3E3" opacity="1.000000" stroke="none" 
	d="
M504.984131,745.380676 
	C552.006470,744.945251 599.054993,744.975159 646.573120,744.960205 
	C646.336731,745.272400 645.630737,745.941833 644.924744,745.941833 
	C598.286621,745.944397 551.648499,745.892883 504.984131,745.380676 
z"/>
<path fill="#E3E3E3" opacity="1.000000" stroke="none" 
	d="
M413.039185,743.474182 
	C416.159241,743.696655 419.218811,744.847473 422.304779,744.923157 
	C432.201202,745.166199 442.107361,745.011597 452.569427,745.176819 
	C453.129089,745.343201 453.118408,745.776978 453.118408,745.776978 
	C453.118408,745.776978 453.248352,746.133972 453.422913,746.058960 
	C441.361206,745.974792 429.124176,746.027039 416.889862,745.866760 
	C415.581879,745.849609 414.290100,744.592346 413.039185,743.474182 
z"/>
<path fill="#FFFFFF" opacity="1.000000" stroke="none" 
	d="
M732.114258,736.666382 
	C731.686401,735.654663 731.058167,734.174377 731.045898,732.689026 
	C730.959412,722.265747 731.032959,711.841064 730.964417,701.417542 
	C730.954163,699.859619 730.467712,698.304932 730.013794,696.356873 
	C733.247009,695.298584 732.170044,697.926208 732.178040,699.418823 
	C732.243652,711.677368 732.205505,723.936462 732.114258,736.666382 
z"/>
<path fill="#000000" opacity="1.000000" stroke="none" 
	d="
M791.620850,385.367004 
	C791.926636,392.716431 791.950867,400.361542 791.938049,408.467285 
	C791.713806,401.172821 791.526550,393.417786 791.620850,385.367004 
z"/>
<path fill="#E3E3E3" opacity="1.000000" stroke="none" 
	d="
M719.067993,744.980896 
	C720.547546,745.003479 722.027100,745.040894 723.506714,745.046143 
	C730.549805,745.071106 730.549805,745.067993 731.653564,737.971619 
	C732.037720,740.245483 732.037720,742.704346 732.037720,745.979797 
	C727.535706,745.979797 722.997070,745.979797 717.958618,746.012634 
	C717.341553,745.885498 717.224365,745.725586 717.668762,745.320557 
	C718.509644,745.043945 718.788818,745.012451 719.067993,744.980896 
z"/>
<path fill="#040404" opacity="1.000000" stroke="none" 
	d="
M639.867737,695.134705 
	C638.914307,695.493774 637.852722,695.576599 636.406738,695.538635 
	C637.268066,695.231384 638.513855,695.044922 639.867737,695.134705 
z"/>
<path fill="#727372" opacity="1.000000" stroke="none" 
	d="
M728.934570,695.716248 
	C727.258850,696.048889 725.362793,696.047485 723.089539,696.061401 
	C724.712952,695.845276 726.713562,695.613708 728.934570,695.716248 
z"/>
<path fill="#040404" opacity="1.000000" stroke="none" 
	d="
M456.889587,695.203491 
	C456.233276,695.546204 455.489502,695.618530 454.383636,695.584839 
	C454.948425,695.296936 455.875275,695.115051 456.889587,695.203491 
z"/>
<path fill="#000000" opacity="1.000000" stroke="none" 
	d="
M791.640808,482.298920 
	C791.916443,483.422272 791.939514,484.770721 791.926514,486.521881 
	C791.722961,485.457733 791.555603,483.990875 791.640808,482.298920 
z"/>
<path fill="#FFFFFF" opacity="1.000000" stroke="none" 
	d="
M678.958130,745.982971 
	C679.141907,745.363281 679.820984,744.680420 681.010010,743.969482 
	C680.831116,744.600830 680.142334,745.260315 678.958130,745.982971 
z"/>
<path fill="#000000" opacity="1.000000" stroke="none" 
	d="
M791.655884,673.271423 
	C791.926514,674.099365 791.951416,675.131592 791.940674,676.549194 
	C791.739990,675.781677 791.575073,674.628662 791.655884,673.271423 
z"/>
<path fill="#000000" opacity="1.000000" stroke="none" 
	d="
M791.663452,467.263855 
	C791.934631,468.095245 791.957336,469.130280 791.945068,470.551819 
	C791.744995,469.781403 791.580017,468.624420 791.663452,467.263855 
z"/>
<path fill="#000000" opacity="1.000000" stroke="none" 
	d="
M791.678101,323.231995 
	C791.940796,323.779785 791.966187,324.503662 791.957703,325.588257 
	C791.762756,325.102020 791.601807,324.255035 791.678101,323.231995 
z"/>
<path fill="#000000" opacity="1.000000" stroke="none" 
	d="
M791.658203,370.244446 
	C791.916321,370.786377 791.941528,371.503265 791.932495,372.577332 
	C791.740601,372.096130 791.582886,371.257751 791.658203,370.244446 
z"/>
<path fill="#000000" opacity="1.000000" stroke="none" 
	d="
M791.672058,449.235535 
	C791.934631,449.782135 791.960632,450.504608 791.953613,451.587158 
	C791.758850,451.101990 791.597168,450.256683 791.672058,449.235535 
z"/>
<path fill="#000000" opacity="1.000000" stroke="none" 
	d="
M791.692505,627.192017 
	C791.928101,627.477112 791.951294,627.897339 791.942871,628.631836 
	C791.767456,628.406494 791.623779,627.866882 791.692505,627.192017 
z"/>
<path fill="#000000" opacity="1.000000" stroke="none" 
	d="
M354.984955,279.983978 
	C355.119720,279.551178 355.263245,279.128174 355.406799,278.705170 
	C355.410706,279.057617 355.414612,279.410034 355.216248,279.885071 
	C355.013977,280.007690 354.993744,279.993774 354.984955,279.983978 
z"/>
<path fill="#040404" opacity="1.000000" stroke="none" 
	d="
M460.310242,244.175934 
	C459.836700,243.993790 459.376587,243.748260 458.916504,243.502731 
	C459.284851,243.593048 459.653168,243.683380 460.233337,243.965790 
	C460.445160,244.157883 460.323730,244.112549 460.310242,244.175934 
z"/>
<path fill="#000000" opacity="1.000000" stroke="none" 
	d="
M791.691284,771.193604 
	C791.925354,771.477844 791.948242,771.896973 791.938293,772.629517 
	C791.763611,772.404785 791.621826,771.866638 791.691284,771.193604 
z"/>
<path fill="#000000" opacity="1.000000" stroke="none" 
	d="
M791.694580,633.190308 
	C791.927734,633.475647 791.948608,633.895325 791.936218,634.628479 
	C791.762695,634.402893 791.622498,633.863770 791.694580,633.190308 
z"/>
<path fill="#E3E3E3" opacity="1.000000" stroke="none" 
	d="
M686.695862,744.159241 
	C686.949036,744.481506 687.202209,744.803711 687.455383,745.125916 
	C687.006714,745.401917 686.558044,745.677856 686.088501,745.463623 
	C686.277100,744.702087 686.486450,744.430664 686.695862,744.159241 
z"/>
<path fill="#000000" opacity="1.000000" stroke="none" 
	d="
M791.751831,788.127319 
	C791.904663,788.048584 791.955383,788.500732 791.931885,788.726807 
	C791.805176,788.703918 791.702087,788.455017 791.751831,788.127319 
z"/>
<path fill="#000000" opacity="1.000000" stroke="none" 
	d="
M791.747253,595.128601 
	C791.899475,595.050781 791.948853,595.500366 791.924805,595.725037 
	C791.798767,595.701965 791.696899,595.454163 791.747253,595.128601 
z"/>
<path fill="#FFFFFF" opacity="1.000000" stroke="none" 
	d="
M684.324463,744.335693 
	C684.812500,743.958069 685.152710,743.974976 686.002075,743.968140 
	C686.511292,743.944519 686.610229,744.046570 686.653076,744.102905 
	C686.486450,744.430664 686.277100,744.702087 685.722534,745.356689 
	C684.977112,745.403320 684.576904,745.066772 684.324463,744.335693 
z"/>
<path fill="#FFFFFF" opacity="1.000000" stroke="none" 
	d="
M647.341919,745.280762 
	C647.204468,744.679749 647.509705,744.349976 648.176270,743.980347 
	C648.286499,744.477722 648.035522,745.014893 647.341919,745.280762 
z"/>
<path fill="#FFFFFF" opacity="1.000000" stroke="none" 
	d="
M503.404419,744.457214 
	C503.922791,744.070557 504.382996,744.200562 504.972015,744.669983 
	C504.515961,744.997559 503.931091,744.985718 503.404419,744.457214 
z"/>
<path fill="#727372" opacity="1.000000" stroke="none" 
	d="
M413.588806,695.950195 
	C413.862244,696.094849 413.852783,696.272705 413.948730,696.696167 
	C413.880768,696.997314 413.707428,697.052856 413.264099,697.067261 
	C413.098083,696.678589 413.201996,696.330994 413.588806,695.950195 
z"/>
<path fill="#040404" opacity="1.000000" stroke="none" 
	d="
M237.725540,402.818298 
	C237.456238,402.710114 237.415833,402.544159 237.456726,402.135254 
	C237.785904,402.072174 238.033768,402.252075 238.281631,402.432007 
	C238.172562,402.541504 238.063507,402.651001 237.725540,402.818298 
z"/>
<path fill="#C3C4C4" opacity="1.000000" stroke="none" 
	d="
M413.750702,360.841309 
	C413.922546,361.334442 413.770752,361.670441 413.324280,361.996887 
	C413.162079,361.552948 413.294586,361.118591 413.750702,360.841309 
z"/>
<path fill="#000000" opacity="1.000000" stroke="none" 
	d="
M412.455292,290.449585 
	C412.510864,290.412994 412.399719,290.486145 412.455292,290.449585 
z"/>
<path fill="#FFFFFF" opacity="1.000000" stroke="none" 
	d="
M718.934082,744.635071 
	C718.788818,745.012451 718.509644,745.043945 717.804321,745.055786 
	C717.852234,744.787109 718.326172,744.538147 718.934082,744.635071 
z"/>
<path fill="#FFFFFF" opacity="1.000000" stroke="none" 
	d="
M453.033447,745.148438 
	C453.255920,744.692932 453.574036,744.432190 453.892151,744.171387 
	C453.914185,744.667603 453.936218,745.163879 453.538330,745.718506 
	C453.118408,745.776978 453.129089,745.343201 453.033447,745.148438 
z"/>
</svg>